HIERARCHY
ROOT Hips
{
	OFFSET -0.001795 -0.223333 0.028219
	CHANNELS 6 Xposition Yposition Zposition Zrotation Yrotation Xrotation 
	JOINT LeftUpLeg
	{
		OFFSET 0.069520 -0.091406 -0.006815
		CHANNELS 3 Zrotation Yrotation Xrotation
		JOINT LeftLeg
		{
			OFFSET 0.034277 -0.375199 -0.004496
			CHANNELS 3 Zrotation Yrotation Xrotation
			JOINT LeftFoot
			{
				OFFSET -0.013596 -0.397961 -0.043693
				CHANNELS 3 Zrotation Yrotation Xrotation
				JOINT LeftToe
				{
					OFFSET 0.026358 -0.055791 0.119288
					CHANNELS 3 Zrotation Yrotation Xrotation
					End Site
					{
						OFFSET 0.000000 0.000000 0.000000
					}
				}
			}
		}
	}
	JOINT RightUpLeg
	{
		OFFSET -0.067670 -0.090522 -0.004320
		CHANNELS 3 Zrotation Yrotation Xrotation
		JOINT RightLeg
		{
			OFFSET -0.038290 -0.382569 -0.008850
			CHANNELS 3 Zrotation Yrotation Xrotation
			JOINT RightFoot
			{
				OFFSET 0.015774 -0.398415 -0.042312
				CHANNELS 3 Zrotation Yrotation Xrotation
				JOINT RightToe
				{
					OFFSET -0.025372 -0.048144 0.123348
					CHANNELS 3 Zrotation Yrotation Xrotation
					End Site
					{
						OFFSET 0.000000 0.000000 0.000000
					}
				}
			}
		}
	}
	JOINT Spine
	{
		OFFSET -0.002533 0.108963 -0.026696
		CHANNELS 3 Zrotation Yrotation Xrotation
		JOINT Spine1
		{
			OFFSET 0.005487 0.135180 0.001092
			CHANNELS 3 Zrotation Yrotation Xrotation
			JOINT Spine2
			{
				OFFSET 0.001457 0.052922 0.025425
				CHANNELS 3 Zrotation Yrotation Xrotation
				JOINT Neck
				{
					OFFSET -0.002778 0.213870 -0.042857
					CHANNELS 3 Zrotation Yrotation Xrotation
					JOINT Head
					{
						OFFSET 0.005152 0.064970 0.051349
						CHANNELS 3 Zrotation Yrotation Xrotation
						End Site
						{
							OFFSET 0.000000 0.000000 0.000000
						}
					}
				}
				JOINT LeftShoulder
				{
					OFFSET 0.078845 0.121749 -0.034090
					CHANNELS 3 Zrotation Yrotation Xrotation
					JOINT LeftArm
					{
						OFFSET 0.090977 0.030469 -0.008868
						CHANNELS 3 Zrotation Yrotation Xrotation
						JOINT LeftForeArm
						{
							OFFSET 0.259612 -0.012772 -0.027456
							CHANNELS 3 Zrotation Yrotation Xrotation
							JOINT LeftHand
							{
								OFFSET 0.249234 0.008986 -0.001171
								CHANNELS 3 Zrotation Yrotation Xrotation
								End Site
								{
									OFFSET 0.000000 0.000000 0.000000
								}
							}
						}
					}
				}
				JOINT RightShoulder
				{
					OFFSET -0.081759 0.118833 -0.038615
					CHANNELS 3 Zrotation Yrotation Xrotation
					JOINT RightArm
					{
						OFFSET -0.096012 0.032551 -0.009143
						CHANNELS 3 Zrotation Yrotation Xrotation
						JOINT RightForeArm
						{
							OFFSET -0.253742 -0.013329 -0.021401
							CHANNELS 3 Zrotation Yrotation Xrotation
							JOINT RightHand
							{
								OFFSET -0.255298 0.007772 -0.005559
								CHANNELS 3 Zrotation Yrotation Xrotation
								End Site
								{
									OFFSET 0.000000 0.000000 0.000000
								}
							}
						}
					}
				}
			}
		}
	}
}
MOTION
Frames: 18
Frame Time: 0.050000
-0.002194 0.936088 -0.104268 -0.498012 -6.539642 4.342753 7.602389 -0.262459 -10.749593 -2.885408 0.348637 5.444216 5.975618 13.808210 15.256852 0.000000 0.000000 0.000000 -3.064194 1.587132 -17.825473 -1.497110 1.400853 18.355775 1.364607 -1.891928 9.000833 0.000000 0.000000 0.000000 12.365211 -0.489433 2.057081 -1.044344 0.582812 6.069992 -6.557928 7.504050 6.571161 11.674742 -5.926225 -14.414921 0.000000 0.000000 0.000000 -9.523034 -31.130684 12.112053 -33.727146 -16.481568 0.334023 -39.326362 -54.381897 22.060967 0.000000 0.000000 0.000000 6.487129 22.055484 9.355696 18.032677 20.319984 0.197861 35.489293 68.963051 28.451352 0.000000 0.000000 0.000000 
-0.003582 0.935784 -0.104049 -0.488780 -5.602888 4.390205 7.920831 -0.268369 -11.538575 -3.250519 0.403912 6.437657 5.514835 13.210227 15.038928 0.000000 0.000000 0.000000 -2.814641 1.600464 -17.931139 -1.734332 1.462150 18.782761 0.926747 -2.658284 8.933523 0.000000 0.000000 0.000000 11.864619 -0.565506 2.560556 -1.246017 0.662301 5.845819 -6.557527 7.870282 5.883517 11.706273 -5.697218 -15.012323 0.000000 0.000000 0.000000 -9.568327 -31.830993 12.275297 -33.696465 -19.075549 1.077486 -37.793120 -56.460125 21.956427 0.000000 0.000000 0.000000 7.697244 22.701798 10.047135 19.328794 21.000561 0.382658 31.781551 68.502529 25.751129 0.000000 0.000000 0.000000 
-0.004676 0.935299 -0.103620 -0.517745 -4.714582 4.506929 8.091527 -0.286666 -12.263167 -3.325327 0.407713 7.229867 5.108248 12.674959 14.765682 0.000000 0.000000 0.000000 -2.827473 1.581828 -17.983378 -1.493951 1.377380 18.981957 0.513506 -3.359300 8.817852 0.000000 0.000000 0.000000 11.462496 -0.611469 2.863773 -1.130113 0.573722 5.633369 -6.681350 8.405806 5.097276 11.959838 -5.679740 -15.251726 0.000000 0.000000 0.000000 -9.612965 -32.836844 12.542943 -33.628471 -21.701000 1.834389 -35.154508 -59.095067 21.332394 0.000000 0.000000 0.000000 8.331081 22.959782 10.491273 21.290243 21.672393 0.657000 32.197849 68.654012 26.407927 0.000000 0.000000 0.000000 
-0.005940 0.934095 -0.102778 -0.573018 -3.902351 4.360622 8.292027 -0.290666 -12.463212 -3.397627 0.409240 7.694401 4.765394 12.186948 14.213340 0.000000 0.000000 0.000000 -2.890697 1.560355 -18.077179 -1.063675 1.282366 19.786472 0.092056 -4.031101 8.569860 0.000000 0.000000 0.000000 11.034783 -0.662676 3.325431 -0.887301 0.421997 5.248957 -6.694793 8.615774 4.852784 12.193298 -5.626409 -15.810874 0.000000 0.000000 0.000000 -9.909672 -33.013545 12.552011 -33.637021 -24.506507 2.593999 -31.713812 -60.743978 19.787715 0.000000 0.000000 0.000000 9.678163 23.365279 11.124321 23.819388 23.003588 1.116610 32.168140 68.045434 26.224319 0.000000 0.000000 0.000000 
-0.007604 0.931349 -0.101876 -0.470566 -3.515946 4.356005 8.575071 -0.278667 -12.920817 -3.870665 0.497015 8.488895 4.712442 12.044732 13.378727 0.000000 0.000000 0.000000 -2.891441 1.616245 -18.842524 -1.002782 1.356388 21.399059 -0.276686 -4.491376 7.918849 0.000000 0.000000 0.000000 10.540095 -0.683207 3.611137 -0.824198 0.379418 4.791265 -6.920931 9.074592 4.614069 12.235644 -5.525072 -16.023733 0.000000 0.000000 0.000000 -10.391714 -33.259007 12.601880 -34.085780 -26.897000 3.319368 -23.967525 -60.533332 14.919929 0.000000 0.000000 0.000000 10.391764 23.713663 11.617061 28.598920 24.784702 2.058649 30.894070 68.124015 25.621740 0.000000 0.000000 0.000000 
-0.009694 0.926706 -0.101469 -0.341219 -2.528482 3.880505 8.878319 -0.274353 -13.293487 -4.361902 0.585424 9.780519 4.456640 11.530344 11.811371 0.000000 0.000000 0.000000 -2.902691 1.616360 -19.248071 -0.849797 1.388613 23.447394 -0.974481 -5.424012 6.755733 0.000000 0.000000 0.000000 10.008605 -0.749700 4.375000 -0.355444 0.117225 4.238492 -7.242784 9.417642 4.502062 13.120977 -5.815585 -16.769774 0.000000 0.000000 0.000000 -10.448166 -33.090689 12.336763 -33.894401 -28.900355 3.842284 -14.148288 -57.648017 8.497061 0.000000 0.000000 0.000000 10.617320 23.253492 11.619615 33.547726 26.669306 3.280263 29.638730 67.921601 24.966842 0.000000 0.000000 0.000000 
-0.012064 0.921476 -0.101481 -0.462875 -2.114987 3.529242 9.380572 -0.233131 -14.414836 -4.682981 0.676429 12.353735 4.524616 11.443559 10.256837 0.000000 0.000000 0.000000 -2.831585 1.696185 -20.266369 -0.347026 1.355820 26.103190 -1.420886 -6.009367 5.819813 0.000000 0.000000 0.000000 9.593166 -0.759673 4.696895 0.169600 -0.146120 3.314131 -7.567998 10.348836 5.313439 13.521903 -5.803556 -17.509039 0.000000 0.000000 0.000000 -9.460110 -31.854518 11.397359 -33.494375 -31.120916 4.257932 -3.614949 -49.333277 2.236540 0.000000 0.000000 0.000000 11.296830 21.895107 11.350917 37.743590 27.258173 4.065899 24.232717 66.659045 21.058751 0.000000 0.000000 0.000000 
-0.014371 0.918415 -0.101543 -0.288686 -2.420048 3.474478 9.222002 -0.244231 -15.810642 -4.445888 0.671763 15.048321 4.793715 11.801066 9.849187 0.000000 0.000000 0.000000 -2.623154 1.766257 -20.613284 -0.746596 1.564479 26.825752 -1.550977 -5.919453 4.722505 0.000000 0.000000 0.000000 8.979940 -0.742601 4.883215 0.174975 -0.136478 2.882720 -7.769535 10.772856 5.289118 14.350882 -6.529519 -16.686547 0.000000 0.000000 0.000000 -9.104245 -30.665099 10.761407 -30.130836 -29.510605 3.313476 2.535372 -38.140753 -0.263051 0.000000 0.000000 0.000000 10.381200 19.492555 9.968409 39.029864 25.621634 3.797014 16.939640 65.430981 15.918041 0.000000 0.000000 0.000000 
-0.016170 0.919906 -0.100352 0.022827 -2.131970 3.529611 9.121007 -0.273710 -16.594739 -4.653271 0.731853 16.262298 4.515149 11.518105 10.818446 0.000000 0.000000 0.000000 -2.622291 1.765631 -20.727894 -1.094304 1.680181 27.098217 -1.592323 -6.169142 5.204984 0.000000 0.000000 0.000000 8.102681 -0.596704 4.003900 0.435275 -0.248815 1.901986 -7.509961 11.080052 6.707558 14.547140 -6.440479 -17.563127 0.000000 0.000000 0.000000 -6.779170 -27.412680 9.132758 -28.256796 -29.529773 2.832072 5.998740 -25.532792 -0.855713 0.000000 0.000000 0.000000 8.712792 16.608527 8.245717 37.974366 22.444021 2.555289 6.339206 61.497898 8.519846 0.000000 0.000000 0.000000 
-0.016902 0.925740 -0.097335 0.113912 -2.109172 3.915436 8.968113 -0.304282 -16.769836 -4.516425 0.692203 16.059412 4.174833 11.291262 12.808841 0.000000 0.000000 0.000000 -2.380293 1.713534 -19.725106 -1.685749 1.726457 24.875941 -1.324664 -5.978417 6.303836 0.000000 0.000000 0.000000 7.730667 -0.493442 3.125490 0.555843 -0.292997 1.297531 -7.554142 11.522741 6.318618 15.010294 -6.983076 -16.472330 0.000000 0.000000 0.000000 -5.416386 -24.219844 7.723526 -24.471839 -26.917115 1.843021 6.374075 -15.946957 -0.538768 0.000000 0.000000 0.000000 6.171102 11.335063 5.399485 35.125285 17.319671 0.813024 -1.584725 54.331464 3.428723 0.000000 0.000000 0.000000 
-0.016555 0.934048 -0.092686 0.196802 -1.769375 4.259815 8.514718 -0.380222 -16.163549 -3.630795 0.447666 16.040918 2.504210 8.458660 11.794785 0.000000 0.000000 0.000000 -2.375215 1.580448 -18.281178 -2.004593 1.638112 22.503243 -0.895334 -5.494249 7.593995 0.000000 0.000000 0.000000 7.857294 -0.395957 2.076785 -0.179478 0.083924 0.203295 -7.061695 11.176172 7.075189 15.422397 -7.394205 -16.192300 0.000000 0.000000 0.000000 -2.327107 -18.904274 5.845428 -21.829048 -25.128626 1.112454 8.678444 -10.608247 -0.596904 0.000000 0.000000 0.000000 1.532646 5.597993 2.314247 30.854403 11.704966 -0.712077 -4.158511 44.383053 1.595243 0.000000 0.000000 0.000000 
-0.015314 0.941723 -0.087273 -0.020905 -1.761406 4.468653 8.283190 -0.392668 -14.505808 -2.494014 0.161445 14.688835 1.021134 5.667835 10.493279 0.000000 0.000000 0.000000 -1.907237 1.496634 -16.686245 -2.717808 1.672400 20.088370 -0.270429 -4.679237 8.924923 0.000000 0.000000 0.000000 8.054878 -0.484034 2.731824 -0.492674 0.261986 -1.677111 -6.801994 11.321775 6.656114 15.064450 -7.316879 -15.516833 0.000000 0.000000 0.000000 1.666456 -13.776884 4.414397 -20.317354 -23.314988 0.658279 9.856404 -8.208645 -0.600761 0.000000 0.000000 0.000000 -3.973197 -0.502092 -0.333391 26.715504 6.568201 -1.560597 -4.320550 35.130132 1.122311 0.000000 0.000000 0.000000 
-0.013625 0.946222 -0.082029 -0.249585 -1.108629 5.386797 8.063611 -0.440134 -13.621451 -1.387201 -0.101047 13.096327 -0.149535 3.081741 8.531355 0.000000 0.000000 0.000000 -1.909603 1.389611 -15.566497 -2.840706 1.499241 17.678061 0.188228 -3.614701 8.810982 0.000000 0.000000 0.000000 8.783127 -0.462380 1.992771 -0.782265 0.420099 -3.363663 -7.038839 11.227367 7.107831 15.831554 -7.979813 -15.019604 0.000000 0.000000 0.000000 5.330164 -7.911983 3.167177 -19.132756 -23.137659 0.400213 9.920996 -7.690742 -0.606784 0.000000 0.000000 0.000000 -8.487096 -5.287942 -1.940211 21.604837 3.058221 -1.829519 -2.480443 28.755918 1.284604 0.000000 0.000000 0.000000 
-0.012172 0.947944 -0.077621 -0.046972 -1.172899 6.066403 7.734661 -0.461713 -12.549486 -0.670610 -0.220644 11.404352 -1.124101 0.776276 7.115469 0.000000 0.000000 0.000000 -2.422237 1.296347 -14.988550 -2.956754 1.432829 16.355837 0.771342 -2.083566 8.043148 0.000000 0.000000 0.000000 8.633992 -0.472742 1.961754 -1.028944 0.537855 -4.340845 -6.517095 10.938313 6.218811 15.145893 -7.816188 -13.968472 0.000000 0.000000 0.000000 8.539673 -3.800599 2.610817 -18.262042 -21.280286 0.141626 9.551454 -8.050320 -0.613494 0.000000 0.000000 0.000000 -13.534526 -8.035705 -2.449380 18.635989 -0.006936 -1.839203 -0.832006 23.836441 1.275336 0.000000 0.000000 0.000000 
-0.011356 0.948739 -0.074028 -0.174358 -0.855435 6.783422 7.750095 -0.464448 -11.771251 0.002775 -0.301342 9.270823 -1.897822 -0.768325 6.810219 0.000000 0.000000 0.000000 -2.281571 1.319282 -15.130005 -3.430919 1.504440 15.876637 1.174093 -1.202704 8.067875 0.000000 0.000000 0.000000 8.734126 -0.471462 1.718973 -0.932719 0.516164 -5.560179 -6.282234 10.014916 6.037122 15.339224 -8.163859 -13.431568 0.000000 0.000000 0.000000 9.674686 0.117971 1.830458 -15.285938 -19.668586 -0.173427 8.598132 -8.198265 -0.528177 0.000000 0.000000 0.000000 -15.857815 -10.368902 -2.691116 15.232523 0.203653 -1.508593 -0.219927 21.011046 1.140486 0.000000 0.000000 0.000000 
-0.011122 0.949092 -0.071218 -0.455774 -1.349542 7.313517 7.796892 -0.441406 -10.963905 0.500548 -0.323462 7.378438 -1.864595 -0.679112 6.981780 0.000000 0.000000 0.000000 -2.001352 1.369969 -15.284909 -3.613306 1.525152 15.411156 1.503569 -0.517256 7.987920 0.000000 0.000000 0.000000 8.516074 -0.466439 1.649047 -0.680680 0.408708 -5.792186 -5.978096 10.130609 4.811171 14.942403 -7.934247 -13.131541 0.000000 0.000000 0.000000 11.495254 2.603863 1.646472 -13.319344 -18.698301 -0.311449 7.649416 -7.852870 -0.431618 0.000000 0.000000 0.000000 -17.278376 -12.075781 -2.828602 12.930561 0.092994 -1.278856 0.310987 19.256455 1.089518 0.000000 0.000000 0.000000 
-0.011064 0.951343 -0.069272 -0.651380 -1.682692 7.934387 7.935758 -0.420133 -10.235576 0.792521 -0.291011 5.242388 -2.179355 -0.906649 7.899874 0.000000 0.000000 0.000000 -1.637831 1.397208 -15.128065 -4.135711 1.548242 14.103561 1.987801 0.207764 8.543336 0.000000 0.000000 0.000000 8.380652 -0.440643 1.354193 -0.569306 0.378191 -7.040167 -5.361117 10.039045 4.852265 14.813967 -7.857363 -13.171216 0.000000 0.000000 0.000000 13.201992 4.421262 1.568566 -11.641320 -18.819590 -0.419259 6.745317 -7.430196 -0.332519 0.000000 0.000000 0.000000 -18.563307 -13.434733 -2.867462 11.742295 1.204653 -1.125288 -0.198320 18.031076 0.926329 0.000000 0.000000 0.000000 
-0.010358 0.954380 -0.068126 -0.949691 -1.570412 8.891062 7.931370 -0.437493 -10.087511 1.339871 -0.284615 3.131612 -2.454291 -0.858231 9.191132 0.000000 0.000000 0.000000 -1.240911 1.441102 -15.208318 -4.597995 1.490859 12.286355 2.509418 0.548723 10.112216 0.000000 0.000000 0.000000 8.261115 -0.388108 0.695359 -0.344073 0.295722 -7.334250 -5.056471 9.876583 3.869473 14.411932 -7.435966 -13.520830 0.000000 0.000000 0.000000 15.213362 5.948296 1.726740 -10.137081 -19.586504 -0.485902 6.168432 -6.569835 -0.256885 0.000000 0.000000 0.000000 -19.524083 -13.846488 -2.740841 10.436030 1.767260 -0.982713 -0.744797 16.399024 0.752678 0.000000 0.000000 0.000000 
